<svg viewBox="0 0 22 20" fill="none" xmlns="http://www.w3.org/2000/svg">
<path fill-rule="evenodd" clip-rule="evenodd" d="M6.59277 1.3H15.4073C15.9797 1.3 16.4758 1.57947 16.7821 2H16.8739C17.4128 2 17.9133 2.14031 18.345 2.38386C18.0641 1.04618 16.8786 0 15.4073 0H6.59277C5.12142 0 3.93595 1.04618 3.65503 2.38384C4.08679 2.1403 4.58727 2 5.12609 2H5.21796C5.52421 1.57947 6.02031 1.3 6.59277 1.3Z" fill="current"/>
<path d="M3.65941 5.65H18.3406C19.8235 5.65 20.9358 7.00671 20.645 8.46087L18.845 17.4609C18.6253 18.5593 17.6608 19.35 16.5406 19.35H5.45941C4.33921 19.35 3.37474 18.5593 3.15505 17.4609L1.35505 8.46087C1.06422 7.00671 2.17645 5.65 3.65941 5.65Z" stroke="current" stroke-width="current" stroke-linecap="round"/>
<path fill-rule="evenodd" clip-rule="evenodd" d="M5.12602 3.3H16.8739C17.8352 3.3 18.5812 4.08815 18.5744 5.00889C19.0386 5.04435 19.4697 5.18449 19.8467 5.40397C20.0921 3.61891 18.7042 2 16.8739 2H5.12602C3.29572 2 1.90779 3.6189 2.15318 5.40396C2.53023 5.18448 2.96126 5.04434 3.42549 5.00889C3.41869 4.08814 4.16468 3.3 5.12602 3.3Z" fill="current"/>
</svg>
