<svg width="22" height="20" viewBox="0 0 22 20" fill="none" xmlns="http://www.w3.org/2000/svg">
<path d="M9.8328 18.9908L9.79761 18.9668L9.75957 18.9476C8.55289 18.3374 6.24688 16.8526 4.25208 14.7964C2.24714 12.7296 0.65 10.1834 0.65 7.44232C0.65 3.68911 3.65849 0.65 7.33405 0.65C8.51546 0.65 9.65657 0.962701 10.6703 1.55932L11 1.75334L11.3297 1.55932C12.3433 0.962752 13.4866 0.65 14.666 0.65C18.3415 0.65 21.35 3.68911 21.35 7.44232C21.35 10.1834 19.7528 12.7302 17.7479 14.7972C15.7531 16.8538 13.4471 18.3384 12.2408 18.9474L12.2026 18.9667L12.1672 18.9908C11.8166 19.2302 11.4297 19.35 11 19.35C10.5703 19.35 10.1834 19.2302 9.8328 18.9908Z" fill="black" stroke="black" stroke-width="1.3"/>
</svg>
