<svg viewBox="0 0 22 21" fill="current" xmlns="http://www.w3.org/2000/svg">
<path d="M1 5.58579V2C1 1.44772 1.44772 1 2 1H20C20.5523 1 21 1.44772 21 2V5.58579C21 5.851 20.8946 6.10536 20.7071 6.29289L14.2929 12.7071C14.1054 12.8946 14 13.149 14 13.4142V16.9256C14 17.2813 13.8111 17.6102 13.5039 17.7894L9.50387 20.1227C8.83721 20.5116 8 20.0308 8 19.259V13.4142C8 13.149 7.89464 12.8946 7.70711 12.7071L1.29289 6.29289C1.10536 6.10536 1 5.851 1 5.58579Z" stroke="current" stroke-width="current" stroke-linecap="round"/>
</svg>
