<svg viewBox="0 0 22 24" fill="current" xmlns="http://www.w3.org/2000/svg">
<path fill-rule="evenodd" clip-rule="evenodd" d="M1 17.4545C0.447715 17.4545 0 17.0068 0 16.4545V1C0 0.447716 0.447715 0 1 0H7.21023C8.51705 0 9.64489 0.255682 10.5938 0.767046C11.5483 1.27273 12.2841 1.98011 12.8011 2.8892C13.3182 3.79261 13.5767 4.84374 13.5767 6.04261C13.5767 7.24715 13.3125 8.30113 12.7841 9.20454C12.2614 10.1023 11.5142 10.7983 10.5426 11.2926C9.57102 11.7869 8.41761 12.0341 7.08239 12.0341H5.21875C4.66647 12.0341 4.21875 12.4818 4.21875 13.0341V16.4545C4.21875 17.0068 3.77103 17.4545 3.21875 17.4545H1ZM6.2983 8.71022H5.21875C4.66647 8.71022 4.21875 8.26251 4.21875 7.71022V4.40057C4.21875 3.84828 4.66647 3.40057 5.21875 3.40057H6.2983C6.92898 3.40057 7.46023 3.50852 7.89205 3.72443C8.32386 3.94034 8.65057 4.24716 8.87216 4.64488C9.09375 5.03693 9.20454 5.50283 9.20454 6.04261C9.20454 6.5767 9.09375 7.04545 8.87216 7.44886C8.65057 7.84659 8.32386 8.15625 7.89205 8.37784C7.46591 8.59943 6.93466 8.71022 6.2983 8.71022Z" fill="current"/>
<path d="M9.61151 12.8555C8.94405 13.0202 8.53868 13.7462 9.03215 14.2249C9.07067 14.2622 9.11013 14.299 9.15055 14.3352C10.0199 15.1079 11.2102 15.6676 12.7216 16.0142L14.5454 16.4403C15.1818 16.588 15.7045 16.75 16.1136 16.9261C16.5284 17.0966 16.8352 17.3011 17.0341 17.5398C17.2329 17.7727 17.3352 18.054 17.3409 18.3835C17.3352 18.7358 17.2244 19.0483 17.0085 19.321C16.7926 19.5937 16.4829 19.8068 16.0795 19.9602C15.6818 20.1136 15.1988 20.1903 14.6307 20.1903C14.0113 20.1903 13.4659 20.0937 12.9943 19.9005C12.5284 19.7074 12.1619 19.4233 11.8949 19.0483C11.7894 18.9002 11.7021 18.7374 11.633 18.5601C11.4409 18.0674 11.0307 17.642 10.5019 17.642H8.41597C7.85879 17.642 7.40038 18.0994 7.47517 18.6515C7.59993 19.5726 7.88566 20.3639 8.33236 21.0255C8.93464 21.9176 9.77839 22.5824 10.8636 23.0199C11.9488 23.4574 13.2216 23.6761 14.6818 23.6761C16.1363 23.6761 17.3778 23.4659 18.4062 23.0454C19.4403 22.625 20.2329 22.0199 20.7841 21.2301C21.3352 20.4403 21.6136 19.4943 21.6193 18.392C21.6136 17.6932 21.4943 17.0625 21.2613 16.5C21.0284 15.9375 20.6846 15.4403 20.2301 15.0085C19.7812 14.5767 19.2244 14.2045 18.5596 13.892C17.9005 13.5795 17.1392 13.3295 16.2755 13.142L14.7755 12.8011C14.3778 12.7159 14.0199 12.6165 13.7017 12.5028C13.3835 12.3892 13.1108 12.2585 12.8835 12.1108C12.6619 11.9574 12.4915 11.7812 12.3721 11.5824V11.5824C12.3602 11.5614 12.3324 11.5555 12.3134 11.5703C11.9796 11.8311 11.6136 12.0629 11.2152 12.2656C10.7209 12.5171 10.1864 12.7137 9.61151 12.8555Z" fill="current"/>
<path d="M14.3311 8.7532C14.2474 8.98732 14.4332 9.24714 14.6818 9.24714V9.24714C15.5057 9.24714 16.1392 9.42328 16.5824 9.77555C16.7951 9.93979 16.9638 10.1353 17.0884 10.362C17.3376 10.8153 17.7369 11.2329 18.2541 11.2329H20.3701C20.9265 11.2329 21.3872 10.7752 21.2862 10.228C21.1609 9.54821 20.9111 8.92864 20.5369 8.3693C19.9858 7.54543 19.2102 6.90623 18.2102 6.45168C17.3244 6.04167 16.2965 5.8143 15.1266 5.76956C14.9201 5.76167 14.7549 5.93399 14.7549 6.1406V6.1406C14.7549 7.09198 14.6137 7.96284 14.3311 8.7532Z" fill="current"/>
</svg>
