<svg viewBox="0 0 35 35" fill="none" xmlns="http://www.w3.org/2000/svg">
<path fill-rule="evenodd" clip-rule="evenodd" d="M0 5C0 2.23858 2.23858 0 5 0H20C28.2843 0 35 6.71573 35 15V30C35 32.7614 32.7614 35 30 35H15C6.71573 35 0 28.2843 0 20V5ZM6.9929 23V5.54545H14.2031C15.5099 5.54545 16.6378 5.80114 17.5866 6.3125C18.5412 6.81818 19.277 7.52557 19.794 8.43466C20.3111 9.33807 20.5696 10.3892 20.5696 11.5881C20.5696 12.7926 20.3054 13.8466 19.777 14.75C19.2543 15.6477 18.5071 16.3438 17.5355 16.8381C16.5639 17.3324 15.4105 17.5795 14.0753 17.5795H11.2116V23H6.9929ZM13.2912 14.2557H11.2116V8.94602H13.2912C13.9219 8.94602 14.4531 9.05398 14.8849 9.26989C15.3168 9.4858 15.6435 9.79261 15.8651 10.1903C16.0866 10.5824 16.1974 11.0483 16.1974 11.5881C16.1974 12.1222 16.0866 12.5909 15.8651 12.9943C15.6435 13.392 15.3168 13.7017 14.8849 13.9233C14.4588 14.1449 13.9276 14.2557 13.2912 14.2557ZM22.0002 12.0001C22.0002 12.9949 21.7927 13.9412 21.4185 14.7982C21.5016 14.7945 21.5871 14.7927 21.6749 14.7927C22.4988 14.7927 23.1323 14.9688 23.5755 15.3211C24.0243 15.6677 24.2772 16.1535 24.334 16.7785H28.3738C28.3624 15.6932 28.0811 14.7387 27.53 13.9148C26.9789 13.091 26.2033 12.4518 25.2033 11.9972C24.2791 11.5694 23.2002 11.3404 21.9666 11.3103C21.9888 11.5372 22.0002 11.7673 22.0002 12.0001ZM15.4065 18.9885C16.9716 18.8989 18.399 18.2951 19.5223 17.3435C19.6206 17.4566 19.7387 17.5608 19.8766 17.6563C20.1039 17.804 20.3766 17.9347 20.6948 18.0484C21.013 18.162 21.3709 18.2614 21.7686 18.3466L23.2686 18.6876C24.1323 18.8751 24.8936 19.1251 25.5527 19.4376C26.2175 19.7501 26.7743 20.1222 27.2232 20.554C27.6777 20.9859 28.0215 21.483 28.2544 22.0455C28.4874 22.608 28.6067 23.2387 28.6124 23.9376C28.6067 25.0398 28.3283 25.9859 27.7772 26.7756C27.226 27.5654 26.4334 28.1705 25.3993 28.591C24.3709 29.0114 23.1294 29.2216 21.6749 29.2216C20.2147 29.2216 18.9419 29.0029 17.8567 28.5654C16.7715 28.1279 15.9277 27.4631 15.3255 26.5711C14.7232 25.679 14.4135 24.5512 14.3965 23.1876H18.4363C18.4703 23.7501 18.6209 24.2188 18.888 24.5938C19.155 24.9688 19.5215 25.2529 19.9874 25.4461C20.459 25.6393 21.0044 25.7359 21.6238 25.7359C22.1919 25.7359 22.6749 25.6591 23.0726 25.5057C23.476 25.3523 23.7857 25.1393 24.0016 24.8665C24.2175 24.5938 24.3283 24.2813 24.334 23.929C24.3283 23.5995 24.226 23.3182 24.0272 23.0853C23.8283 22.8466 23.5215 22.6421 23.1067 22.4716C22.6976 22.2955 22.1749 22.1336 21.5385 21.9859L19.7147 21.5597C18.2033 21.2131 17.013 20.6535 16.1436 19.8807C15.847 19.6151 15.6012 19.3177 15.4065 18.9885Z" fill="current"/>
</svg>
